# xmcd
# 
# Track frame offsets:
#     150
#     6388
#     21214
#     35269
#     38376
#     56078
#     66579
#     71273
#     90236
#     107928
#     131276
#     146712
#     159110
#     163138
#     182776
# 
# Disc length: 2504
# 
# Revision: 1
# Processed by: cddbd v1.5.2PL0 Copyright (c) Steve Scherf et al.
# Submitted via: BonkEnc v1.1beta1pre2
# 
DISCID=c209c60f
DTITLE=Honkeyfinger - Invocation of the Demon Other
DYEAR=2008
DGENRE=Blues - Experimental - Psychedelic
TTITLE0=Honk N Skronk N
TTITLE1=Got This Rage
TTITLE2=Margarine Man
TTITLE3=Jitterbode Boogie
TTITLE4=Trouble
TTITLE5=Parchman Farm
TTITLE6=Cobra
TTITLE7=True Believers
TTITLE8=Farmer George
TTITLE9=Fine Thing
TTITLE10=Margarine Man (Pt 2)
TTITLE11=Burning Skull Blues
TTITLE12=Boss Honk
TTITLE13=Running on Empty
TTITLE14=Subaquatic Homesick Blues
EXTD=
EXTT0=
EXTT1=
EXTT2=
EXTT3=
EXTT4=
EXTT5=
EXTT6=
EXTT7=
EXTT8=
EXTT9=
EXTT10=
EXTT11=
EXTT12=
EXTT13=
EXTT14=
PLAYORDER=
